# xmcd
#
# Track frame offsets:
#      150
#      15857
#      33852
#      51977
#      71889
#      89178
#      102696
#      118955
#      138033
#      154415
#      159129
#      176036
#      183232
#      202694
#      218168
#      239864
#      249588
#      269007
# 
# Disc length: 3804 seconds
#
# Revision: 12
# Processed by: cddbd v1.4PL0 Copyright (c) Steve Scherf et al.
#
# Submitted via: FreeRIP 1.21
#
DISCID=0a0eda12
DTITLE=Moby - Play
DYEAR=1999
DGENRE=Electronic
TTITLE0=Honey
TTITLE1=Find My baby
TTITLE2=Porcelain
TTITLE3=Why Does My Heart Feel So Bad?
TTITLE4=South Side
TTITLE5=Rushing
TTITLE6=Bodyrock
TTITLE7=Natural Blues
TTITLE8=Machete
TTITLE9=7
TTITLE10=Run On
TTITLE11=Down Slow
TTITLE12=If Things Were Perfect
TTITLE13=Everloving
TTITLE14=Inside
TTITLE15=Guitar Flute and String
TTITLE16=The Sky Is Broken
TTITLE17=My Weakness
EXTD=YEAR: 1999 ID3G: 13
EXTT0=
EXTT1=
EXTT2=
EXTT3=
EXTT4=
EXTT5=
EXTT6=
EXTT7=
EXTT8=
EXTT9=
EXTT10=
EXTT11=
EXTT12=
EXTT13=
EXTT14=
EXTT15=
EXTT16=
EXTT17=
PLAYORDER=
